<?xml version="1.0" encoding="UTF-8" standalone="no"?>
<svg
   xmlns:dc="http://purl.org/dc/elements/1.1/"
   xmlns:cc="http://creativecommons.org/ns#"
   xmlns:rdf="http://www.w3.org/1999/02/22-rdf-syntax-ns#"
   xmlns:svg="http://www.w3.org/2000/svg"
   xmlns="http://www.w3.org/2000/svg"
   xmlns:sodipodi="http://sodipodi.sourceforge.net/DTD/sodipodi-0.dtd"
   xmlns:inkscape="http://www.inkscape.org/namespaces/inkscape"
   width="3258"
   height="697"
   viewBox="0 0 3258 697"
   version="1.1"
   id="svg828"
   sodipodi:docname="possibilitynow-logo-new.svg"
   inkscape:version="0.92.5 (0.92.5+68)">
  <metadata
     id="metadata834">
    <rdf:RDF>
      <cc:Work
         rdf:about="">
        <dc:format>image/svg+xml</dc:format>
        <dc:type
           rdf:resource="http://purl.org/dc/dcmitype/StillImage" />
        <dc:title></dc:title>
      </cc:Work>
    </rdf:RDF>
  </metadata>
  <defs
     id="defs832" />
  <sodipodi:namedview
     pagecolor="#ffffff"
     bordercolor="#666666"
     borderopacity="1"
     objecttolerance="10"
     gridtolerance="10"
     guidetolerance="10"
     inkscape:pageopacity="0"
     inkscape:pageshadow="2"
     inkscape:window-width="1853"
     inkscape:window-height="1025"
     id="namedview830"
     showgrid="false"
     inkscape:zoom="0.3705866"
     inkscape:cx="1474.689"
     inkscape:cy="444.5"
     inkscape:window-x="67"
     inkscape:window-y="27"
     inkscape:window-maximized="1"
     inkscape:current-layer="Group_108" />
  <g
     id="Group_108"
     data-name="Group 108"
     transform="translate(-18581,-8804)">
    <g
       id="Group_29"
       data-name="Group 29"
       transform="translate(25097,10342.287)">
      <g
         id="Group_27"
         data-name="Group 27"
         transform="translate(-6516,-1536)">
        <g
           id="Group_26"
           data-name="Group 26">
          <path
             id="Path_308"
             data-name="Path 308"
             d="m 523.646,429.413 a 7.781,7.781 0 0 1 -2.653,-9.051 c 3,-7.875 9.61,-3.9 26.522,-3.9 53.077,0 110.645,-31.32 148.681,-67.863 -43.438,-41.733 -106.516,-73.836 -167.089,-66.619 -7.859,1.025 -11.843,-9.245 -5.773,-13.885 48.032,-37.532 69.3,-105.24 70.985,-165.374 a 306.931,306.931 0 0 0 -58.66,8.112 c -98.322,24.094 -100.453,70.717 -115.294,65.057 -15.246,-6.533 15.9,-44.32 -36.04,-127.774 A 278.228,278.228 0 0 0 348.6,1 c -40.762,42.426 -73.282,104.969 -66.772,166.934 a 7.871,7.871 0 0 1 -4.836,7.957 c -15.407,6.607 -14.391,-39.814 -115.452,-65.057 a 311.193,311.193 0 0 0 -58.816,-8.112 314.081,314.081 0 0 0 8.111,58.661 c 22.339,96.709 71.4,100.782 65.062,115.6 -6.62,16.53 -38.741,-18.321 -127.777,35.884 A 292.463,292.463 0 0 0 1,348.6 292.487,292.487 0 0 0 48.117,384.326 c 88.965,54.161 121.2,19.848 127.62,35.884 3.17,7.411 -3.984,9.418 -15.914,20.905 -38.478,38.478 -54.779,98.046 -57.1,153.206 26.238,-0.772 59.028,-6.49 84.091,-15.6 75.1,-26.336 76.828,-64.245 90.177,-57.571 16.085,6.432 -17.988,39.386 35.882,127.933 A 292.284,292.284 0 0 0 348.6,696.2 c 41.341,-43.854 73.327,-104.89 66.774,-167.09 a 8.114,8.114 0 0 1 4.994,-8.112 7.783,7.783 0 0 1 9.051,2.652 c 35.235,48.063 104.5,68.346 164.9,70.832 -1.672,-59.646 -22.85,-128.399 -70.673,-165.069 z M 348.6,459.678 A 111.081,111.081 0 1 1 459.681,348.6 c 0,61.155 -49.924,111.078 -111.081,111.078 z"
             transform="translate(-1,-1)"
             inkscape:connector-curvature="0"
             style="fill:#dcb649" />
        </g>
      </g>
      <g
         id="Ellipse_87"
         data-name="Ellipse 87"
         transform="translate(-6261,-1281)"
         style="fill:#0d0200;stroke:#707070;stroke-width:1">
        <circle
           cx="92.5"
           cy="92.5"
           r="92.5"
           id="circle818"
           style="stroke:none" />
        <circle
           cx="92.5"
           cy="92.5"
           r="92"
           id="circle820"
           style="fill:none" />
      </g>
    </g>
    <text
       id="Possibility_Now"
       data-name="Possibility Now"
       font-size="350"
       font-weight="500"
       style="font-weight:500;font-size:350px;font-family:IBMPlexSans-Medium, 'IBM Plex Sans'"
       x="19385"
       y="8887.2861">
      <tspan
         x="19385"
         y="9246.2861"
         id="tspan824"
         style="font-style:normal;font-variant:normal;font-weight:normal;font-stretch:normal;font-family:'IBM Plex Sans Medium';-inkscape-font-specification:'IBM Plex Sans Medium, '">Possibility Now</tspan>
    </text>
  </g>
</svg>
