<svg xmlns="http://www.w3.org/2000/svg" width="3597" height="889" viewBox="0 0 3597 889">
  <g id="Group_108" data-name="Group 108" transform="translate(-18581 -8612)">
    <g id="Group_29" data-name="Group 29" transform="translate(25097 10148)">
      <g id="Group_27" data-name="Group 27" transform="translate(-6516 -1536)">
        <g id="Group_26" data-name="Group 26">
          <path id="Path_308" data-name="Path 308" d="M523.646,429.413a7.781,7.781,0,0,1-2.653-9.051c3-7.875,9.61-3.9,26.522-3.9,53.077,0,110.645-31.32,148.681-67.863-43.438-41.733-106.516-73.836-167.089-66.619-7.859,1.025-11.843-9.245-5.773-13.885,48.032-37.532,69.3-105.24,70.985-165.374a306.931,306.931,0,0,0-58.66,8.112c-98.322,24.094-100.453,70.717-115.294,65.057-15.246-6.533,15.9-44.32-36.04-127.774A278.228,278.228,0,0,0,348.6,1c-40.762,42.426-73.282,104.969-66.772,166.934a7.871,7.871,0,0,1-4.836,7.957c-15.407,6.607-14.391-39.814-115.452-65.057a311.193,311.193,0,0,0-58.816-8.112,314.081,314.081,0,0,0,8.111,58.661c22.339,96.709,71.4,100.782,65.062,115.6-6.62,16.53-38.741-18.321-127.777,35.884A292.463,292.463,0,0,0,1,348.6a292.487,292.487,0,0,0,47.117,35.726c88.965,54.161,121.2,19.848,127.62,35.884,3.17,7.411-3.984,9.418-15.914,20.905-38.478,38.478-54.779,98.046-57.1,153.206,26.238-.772,59.028-6.49,84.091-15.6,75.1-26.336,76.828-64.245,90.177-57.571,16.085,6.432-17.988,39.386,35.882,127.933A292.284,292.284,0,0,0,348.6,696.2c41.341-43.854,73.327-104.89,66.774-167.09a8.114,8.114,0,0,1,4.994-8.112,7.783,7.783,0,0,1,9.051,2.652c35.235,48.063,104.5,68.346,164.9,70.832C592.647,534.836,571.469,466.083,523.646,429.413ZM348.6,459.678A111.081,111.081,0,1,1,459.681,348.6C459.681,409.755,409.757,459.678,348.6,459.678Z" transform="translate(-1 -1)" fill="#dcb649"/>
        </g>
      </g>
      <g id="Ellipse_87" data-name="Ellipse 87" transform="translate(-6261 -1281)" fill="#0d0200" stroke="#707070" stroke-width="1">
        <circle cx="92.5" cy="92.5" r="92.5" stroke="none"/>
        <circle cx="92.5" cy="92.5" r="92" fill="none"/>
      </g>
    </g>
    <text id="Possibility_Now" data-name="Possibility Now" transform="translate(19385 8693)" font-size="350" font-family="IBMPlexSans-Medium, IBM Plex Sans" font-weight="500"><tspan x="0" y="359">Possibility Now</tspan></text>
  </g>
</svg>
